<svg width="24" height="24" viewBox="0 0 24 24" fill="none" xmlns="http://www.w3.org/2000/svg">
<g id="check-in-calendar 1" clip-path="url(#clip0_105_50)">
<path id="Vector" d="M24 7V8H0V7C0 4.239 2.239 2 5 2H6V1C6 0.448 6.448 0 7 0C7.552 0 8 0.448 8 1V2H16V1C16 0.448 16.448 0 17 0C17.552 0 18 0.448 18 1V2H19C21.761 2 24 4.239 24 7ZM0 10V16H7.948L6.377 14.429C5.986 14.038 5.986 13.406 6.377 13.015C6.768 12.624 7.4 12.624 7.791 13.015L10.45 15.674C11.181 16.405 11.181 17.594 10.45 18.325L7.791 20.984C7.596 21.179 7.34 21.277 7.084 21.277C6.828 21.277 6.572 21.179 6.377 20.984C5.986 20.593 5.986 19.961 6.377 19.57L7.948 17.999H0V18.999C0 21.76 2.239 23.999 5 23.999H19C21.761 23.999 24 21.76 24 18.999V9.999H0V10Z" fill="#002244" fill-opacity="0.5"/>
</g>
<defs>
<clipPath id="clip0_105_50">
<rect width="24" height="24" fill="white"/>
</clipPath>
</defs>
</svg>
