<svg width="48" height="47" viewBox="0 0 48 47" fill="none" xmlns="http://www.w3.org/2000/svg">
<g id="instagram 1" clip-path="url(#clip0_58_155)">
<g id="Group">
<path id="Vector" d="M23.5859 4.23392C29.8604 4.23392 30.6046 4.25742 33.0819 4.371C35.6434 4.4885 38.2813 5.07208 40.1476 6.93837C42.0315 8.82229 42.5974 11.4347 42.7149 14.004C42.8285 16.4813 42.852 17.2255 42.852 23.5C42.852 29.7745 42.8285 30.5187 42.7149 32.996C42.5994 35.5438 42.0021 38.2071 40.1476 40.0616C38.2636 41.9455 35.6532 42.5115 33.0819 42.629C30.6046 42.7426 29.8604 42.7661 23.5859 42.7661C17.3114 42.7661 16.5673 42.7426 14.09 42.629C11.5618 42.5135 8.86319 41.9025 7.02431 40.0616C5.15019 38.1875 4.57444 35.5496 4.45694 32.996C4.34335 30.5187 4.31985 29.7745 4.31985 23.5C4.31985 17.2255 4.34335 16.4813 4.45694 14.004C4.57248 11.466 5.17565 8.78704 7.02431 6.93837C8.90431 5.05837 11.5265 4.4885 14.09 4.371C16.5673 4.25742 17.3114 4.23392 23.5859 4.23392ZM23.5859 0C17.2037 0 16.4028 0.0274167 13.8961 0.141C10.2634 0.307458 6.65615 1.31796 4.03002 3.94408C1.3941 6.58 0.393396 10.1794 0.226938 13.8102C0.113354 16.3168 0.0859375 17.1178 0.0859375 23.5C0.0859375 29.8822 0.113354 30.6832 0.226938 33.1898C0.393396 36.8186 1.40781 40.4357 4.03002 43.0559C6.66398 45.6899 10.2693 46.6925 13.8961 46.859C16.4028 46.9726 17.2037 47 23.5859 47C29.9681 47 30.7691 46.9726 33.2758 46.859C36.9065 46.6925 40.5177 45.6801 43.1419 43.0559C45.7797 40.418 46.7785 36.8206 46.9449 33.1898C47.0585 30.6832 47.0859 29.8822 47.0859 23.5C47.0859 17.1178 47.0585 16.3168 46.9449 13.8102C46.7785 10.1775 45.766 6.56825 43.1419 3.94408C40.5118 1.31404 36.8967 0.3055 33.2758 0.141C30.7691 0.0274167 29.9681 0 23.5859 0Z" fill="#00B6FF"/>
<path id="Vector_2" d="M23.5858 11.4329C16.9216 11.4329 11.5186 16.8359 11.5186 23.5001C11.5186 30.1643 16.9216 35.5674 23.5858 35.5674C30.25 35.5674 35.6531 30.1643 35.6531 23.5001C35.6531 16.8359 30.25 11.4329 23.5858 11.4329ZM23.5858 31.3334C19.2598 31.3334 15.7525 27.8261 15.7525 23.5001C15.7525 19.1742 19.2598 15.6668 23.5858 15.6668C27.9118 15.6668 31.4191 19.1742 31.4191 23.5001C31.4191 27.8261 27.9118 31.3334 23.5858 31.3334Z" fill="#00B6FF"/>
<path id="Vector_3" d="M36.1305 13.7748C37.688 13.7748 38.9505 12.5122 38.9505 10.9548C38.9505 9.39732 37.688 8.13477 36.1305 8.13477C34.5731 8.13477 33.3105 9.39732 33.3105 10.9548C33.3105 12.5122 34.5731 13.7748 36.1305 13.7748Z" fill="#00B6FF"/>
</g>
</g>
<defs>
<clipPath id="clip0_58_155">
<rect width="47" height="47" fill="white" transform="translate(0.0859375)"/>
</clipPath>
</defs>
</svg>
