<svg width="24" height="24" viewBox="0 0 24 24" fill="none" xmlns="http://www.w3.org/2000/svg">
<g id="Vector">
<path d="M18.9999 11.993L22.5349 8.535C24.4849 6.585 24.4849 3.413 22.5349 1.464C21.5909 0.52 20.3349 0 18.9999 0C17.6649 0 16.4089 0.52 15.4639 1.464C13.5149 3.414 13.5149 6.586 15.4719 8.543L18.9999 11.993ZM16.8779 2.878C17.4449 2.311 18.1979 1.999 18.9999 1.999C19.8019 1.999 20.5549 2.311 21.1209 2.877C22.2909 4.047 22.2909 5.95 21.1289 7.112L18.9999 9.194L16.8779 7.12C15.7089 5.95 15.7089 4.048 16.8779 2.878ZM8.99991 19.999V20.999H6.49991L4.58891 23.42C4.39391 23.777 4.01991 23.999 3.61391 23.999H2.50091L3.66791 20.999H1.64991L0.103912 19.166C-0.193088 18.646 0.181912 17.999 0.780912 17.999C0.987912 17.999 1.18591 18.081 1.33191 18.227L2.44191 18.999H3.68291L2.49891 15.999H3.59491C4.00191 15.999 4.37591 16.221 4.56991 16.578L6.49891 18.999H7.74891C8.55091 18.999 8.99891 19.447 8.99891 19.999H8.99991ZM23.9999 16.999C23.9999 19.205 22.2059 20.999 19.9999 20.999H10.9999V19.999C10.9999 19.645 10.9389 19.309 10.8279 18.999H19.9999C21.1029 18.999 21.9999 18.102 21.9999 16.999C21.9999 15.896 21.1029 14.999 19.9999 14.999H8.99991C6.79391 14.999 4.99991 13.205 4.99991 10.999C4.99991 8.793 6.79391 6.999 8.99991 6.999H12.2989C12.5069 7.701 12.8279 8.377 13.2599 8.999H8.99991C7.89691 8.999 6.99991 9.896 6.99991 10.999C6.99991 12.102 7.89691 12.999 8.99991 12.999H19.9999C22.2059 12.999 23.9999 14.793 23.9999 16.999Z" fill="#002244" fill-opacity="0.5"/>
<path d="M19 6C19.5523 6 20 5.55228 20 5C20 4.44772 19.5523 4 19 4C18.4477 4 18 4.44772 18 5C18 5.55228 18.4477 6 19 6Z" fill="#002244" fill-opacity="0.5"/>
</g>
</svg>
