<svg width="24" height="24" viewBox="0 0 24 24" fill="none" xmlns="http://www.w3.org/2000/svg">
<g id="plane-alt 1" clip-path="url(#clip0_105_43)">
<path id="Vector" d="M24 13.2037V16.0187L15 12.9775L15 18.0208L16.653 19.1069C17.0674 19.38 17.4075 19.752 17.6426 20.1894C17.8777 20.6268 18.0005 21.1158 18 21.6125V23.984L12 21.7817L6 24V21.6245C5.99934 21.1287 6.12171 20.6404 6.35612 20.2036C6.59053 19.7668 6.92964 19.3951 7.343 19.1219L9 18.0208L9 12.9745L5.14037e-08 16.0187L5.14037e-08 13.2037C-9.97046e-05 12.6642 0.144995 12.1346 0.420033 11.6706C0.695071 11.2067 1.08989 10.8254 1.563 10.567L9 6.42066V3.11221C8.99091 2.38822 9.23631 1.68407 9.6933 1.12285C10.1503 0.56163 10.7898 0.179056 11.5 0.0420055C11.9303 -0.0308113 12.3714 -0.00875664 12.7923 0.106632C13.2133 0.222019 13.604 0.427959 13.9372 0.710087C14.2705 0.992212 14.5382 1.34373 14.7218 1.74011C14.9053 2.1365 15.0003 2.5682 15 3.0051V6.42066L22.444 10.571C22.9152 10.83 23.3082 11.211 23.582 11.6742C23.8557 12.1373 24.0001 12.6656 24 13.2037Z" fill="#002244"/>
</g>
<defs>
<clipPath id="clip0_105_43">
<rect width="24" height="24" fill="white" transform="matrix(0 -1 1 0 0 24)"/>
</clipPath>
</defs>
</svg>
