<svg width="24" height="24" viewBox="0 0 24 24" fill="none" xmlns="http://www.w3.org/2000/svg">
<g id="reservation-table 1">
<path id="Vector" d="M23.9397 17.3042L21.9675 6.13079C21.5455 3.73691 19.4743 2 17.043 2H6.95798C3.49962 2 2.29349 4.65487 2.03347 6.13079L0.0612631 17.3042C-0.144758 18.4712 0.174275 19.6611 0.936354 20.5711C1.69843 21.479 2.81555 22 4.00067 22H4.99977C5.55183 22 5.99988 21.553 5.99988 21C5.99988 20.4471 5.55183 20.0001 4.99977 20.0001H4.00067C3.40761 20.0001 2.84955 19.7391 2.46851 19.2851C2.08747 18.8312 1.92746 18.2362 2.03047 17.6522L4.00267 6.47878C4.06468 6.12479 4.18769 5.79481 4.35771 5.49983L6.69695 17.9252C7.142 20.2861 9.20821 22 11.6115 22H19.9993C21.1854 22 22.3026 21.479 23.0636 20.5711C23.8257 19.6621 24.1458 18.4712 23.9397 17.3042ZM21.5325 19.2841C21.1514 19.7381 20.5934 19.9991 20.0003 19.9991H11.6125C10.1713 19.9991 8.93118 18.9712 8.66415 17.5552L6.13289 4.11489C6.39592 4.0399 6.67295 4.0009 6.95698 4.0009H17.043C18.5012 4.0009 19.7443 5.04285 19.9973 6.47978L21.9695 17.6532C22.0725 18.2372 21.9135 18.8322 21.5315 19.2861L21.5325 19.2841ZM10.0003 8.99965C9.44824 8.99965 9.00019 8.55167 9.00019 7.9997C9.00019 7.44773 9.44824 6.99975 10.0003 6.99975H17.001C17.5531 6.99975 18.0011 7.44773 18.0011 7.9997C18.0011 8.55167 17.5531 8.99965 17.001 8.99965H10.0003ZM10.7314 12.9995C10.1793 12.9995 9.73127 12.5515 9.73127 11.9995C9.73127 11.4475 10.1793 10.9996 10.7314 10.9996H17.7321C18.2842 10.9996 18.7322 11.4475 18.7322 11.9995C18.7322 12.5515 18.2842 12.9995 17.7321 12.9995H10.7314ZM19.5013 15.9993C19.5013 16.5523 19.0532 16.9993 18.5012 16.9993H11.5004C10.9484 16.9993 10.5003 16.5523 10.5003 15.9993C10.5003 15.4463 10.9484 14.9994 11.5004 14.9994H18.5012C19.0532 14.9994 19.5013 15.4463 19.5013 15.9993Z" fill="#002244" fill-opacity="0.5"/>
</g>
</svg>
